<svg xmlns="http://www.w3.org/2000/svg" width="125" height="70" viewBox="0 0 450 150"><path d="M81 35.7c-2.5 1.4-6.1 3.6-8 4.8l-3.4 2.2.3 12.4c.2 10 0 12.8-1.2 13.7-1.1.9-6.6 1.2-20.3 1l-18.9-.3-.3-13.3-.3-13.2H11l.2 32.2.3 32.3 8.7.3 8.8.3V95.7c0-8.2.4-12.7 1.2-13.5 1.3-1.3 35.1-1.8 38.2-.6 1.3.5 1.6 2.7 1.6 13.5V108h17V70.5c0-20.6-.3-37.5-.7-37.4-.5 0-2.8 1.2-5.3 2.6zM104.5 44.3c-.3.7-.4 15.2-.3 32.2l.3 31 29.5.3 29.5.2 6.5-6.5 6.4-6.5H122V82h35.1l5.5-5.1c3-2.9 5.4-5.6 5.4-6 0-.5-10.2-1-22.7-1.1l-22.8-.3v-13l21.4-.3 21.4-.2 5.8-6c3.3-3.2 5.9-6.2 5.9-6.5 0-.3-16.2-.5-36-.5-28.1 0-36.2.3-36.5 1.3zM192.5 44.3c-.3.7-.4 15.2-.3 32.2l.3 31 29.3.3 29.3.2 6-5.6c3.2-3.2 5.9-6.1 5.9-6.5 0-.5-12-1-26.7-1.1l-26.8-.3v-12l17.7-.5 17.7-.5 5.1-5c2.7-2.7 5-5.3 5-5.7 0-.4-10.2-.9-22.7-1l-22.8-.3v-13l22-.3 22-.2 5.2-5.2c2.9-2.9 5.3-5.8 5.3-6.5 0-1.9-70.8-1.9-71.5 0z"></path><path fill="#dd000d" d="m283.7 49.8-6.7 6.8v38l6.8 6.7 6.8 6.7h45l6.7-6.8 6.8-6.8-.3-12-.3-11.9-19-.3c-10.4-.1-19.6 0-20.3.3-1 .3.2 2.1 3.7 5.7 5 5.1 5.3 5.2 11.4 5.5 3.4.1 6.6.2 7 .3.4 0 .7 2.8.5 6.2l-.3 6.3-17.9.3c-12.3.2-18.3-.1-19.2-.9-1.9-1.5-2-34.9-.2-36.7.9-.9 7.2-1.2 22.3-1.2h21.1l5.7-5.8c3.2-3.2 5.4-6.1 5.1-6.5-.4-.4-13.6-.7-29.3-.7h-28.7l-6.7 6.8z"></path><path d="m369.7 49.9-6.7 6.9V107l7 .1c3.9.1 7.6.2 8.3.3.8.1 1.3-2.6 1.7-8.9l.5-9h41l.5 9.9c.4 7.4.9 10.1 2 10.7.8.4 3.8 2.1 6.6 3.7 2.7 1.6 6 3.3 7.2 3.6l2.2.7V57.5l-7.2-7.2-7.2-7.3h-49.3l-6.6 6.9zm51.1 6.9c.9.6 1.2 3.3 1 9.8l-.3 8.9-19.4.3c-13.4.2-19.8-.1-20.7-.9-1.8-1.5-1.9-16-.2-17.7 1.4-1.4 37.4-1.7 39.6-.4z"></path></svg>
